<?xml version="1.0" encoding="iso-8859-1"?>
<!-- Generator: Adobe Illustrator 19.0.0, SVG Export Plug-In . SVG Version: 6.00 Build 0)  -->
<svg version="1.1" id="Layer_1" xmlns="http://www.w3.org/2000/svg" xmlns:xlink="http://www.w3.org/1999/xlink" x="0px" y="0px"
	 viewBox="0 0 501.333 501.333" style="enable-background:new 0 0 501.333 501.333;" xml:space="preserve">
<g>
	<g>
		<path d="M291.275,257.067c-6.4-26.667-28.8-41.6-45.867-48c-17.067-6.4-36.267-2.133-54.4,9.6c-18.133-12.8-38.4-16-55.467-10.667
			c-17.067,6.4-38.4,22.4-45.867,48c-4.267,17.067-4.267,43.733,21.333,74.667c59.733,71.467,71.467,75.733,78.933,75.733
			c1.067,0,1.067,0,1.067,0h1.067c7.467,0,19.2-4.267,77.867-74.667C296.608,300.8,295.542,274.133,291.275,257.067z M239.008,304
			c-14.933,17.067-35.2,40.533-48,53.333c-12.8-12.8-34.133-37.333-49.067-54.4c-7.466-9.6-16-23.466-12.799-36.266
			c2.133-9.6,11.733-17.067,19.2-19.2c6.4-2.133,17.067,2.133,26.667,11.733c2.133,1.067,3.2,2.133,5.333,3.2
			c8.533,4.267,18.133,4.267,25.6-2.133c9.6-9.6,20.267-13.867,26.667-11.733c7.467,2.133,16,9.6,19.2,19.2
			C255.008,280.533,246.475,294.4,239.008,304z"/>
	</g>
</g>
<g>
	<g>
		<path d="M493.942,220.8c-13.867-26.667-41.6-40.533-71.467-35.2l-40.533,6.4v-55.467c0-11.733-9.6-21.333-21.333-21.333h-339.2
			c-11.733,0-21.333,9.6-21.333,21.333V400c0,55.467,45.867,101.333,101.333,101.333h178.133c56.533,0,101.333-45.867,102.4-100.267
			l101.333-105.6C502.475,275.2,506.742,246.4,493.942,220.8z M339.275,400c0,33.067-26.667,59.733-59.733,59.733H101.408
			c-33.067,0-59.733-26.667-59.733-59.733V157.867h297.6V400z M453.408,266.667l-71.467,73.6v-105.6l48-7.467
			c13.867-3.2,23.467,5.333,27.733,12.8C459.808,244.267,464.075,256,453.408,266.667z"/>
	</g>
</g>
<g>
	<g>
		<path d="M87.542,0C75.808,0,66.208,9.6,66.208,21.333V57.6c0,11.733,9.6,21.333,21.333,21.333s20.267-9.6,21.333-20.267V21.333
			C108.875,9.6,99.275,0,87.542,0z"/>
	</g>
</g>
<g>
	<g>
		<path d="M191.008,0c-11.733,0-21.333,9.6-21.333,21.333V57.6c0,11.733,9.6,21.333,21.333,21.333s20.267-9.6,21.333-20.267V21.333
			C212.342,9.6,202.742,0,191.008,0z"/>
	</g>
</g>
<g>
	<g>
		<path d="M294.475,0c-11.733,0-21.333,9.6-21.333,21.333V57.6c0,11.733,9.6,21.333,21.333,21.333s21.333-9.6,21.333-20.267V21.333
			C315.808,9.6,306.208,0,294.475,0z"/>
	</g>
</g>
<g>
</g>
<g>
</g>
<g>
</g>
<g>
</g>
<g>
</g>
<g>
</g>
<g>
</g>
<g>
</g>
<g>
</g>
<g>
</g>
<g>
</g>
<g>
</g>
<g>
</g>
<g>
</g>
<g>
</g>
</svg>
